<svg xmlns="http://www.w3.org/2000/svg" xmlns:xlink="http://www.w3.org/1999/xlink" width="186" height="139" viewBox="0 0 186 139"><defs><path id="iiila" d="M293.853 102.147V76.853h67.294v25.294zm63.63-23.22c-1.2 0-2.39-.03-3.569-.092v.618c.931.02 1.604.17 2.018.449.414.278.62.757.62 1.438 0 .66-.165 1.495-.496 2.505l-3.818 11.97-4.47-13.764c-.207-.618-.31-1.113-.31-1.484 0-.433.155-.717.465-.85.31-.135.86-.223 1.646-.264v-.618c-.87.061-2.194.092-3.974.092-1.262 0-2.265-.03-3.01-.092v.618c.807.041 1.417.701 1.83 1.98l.839 2.443-3.787 11.97-4.532-13.795c-.227-.68-.341-1.185-.341-1.515 0-.35.114-.609.341-.774.228-.164.621-.268 1.18-.309v-.618c-.745.061-1.863.092-3.353.092-1.365 0-2.472-.03-3.32-.092v.618c.993.041 1.706.701 2.141 1.98l6.58 19.455h.497l4.935-15.93 5.401 15.93h.497l5.867-18.744c.476-1.526 1.293-2.423 2.452-2.69v-.62c-.621.062-1.397.093-2.328.093zM317.216 91.82l3.536-9.244 3.474 9.244zm4.903-13.139h-.497l-7.296 18.735c-.6 1.546-1.418 2.443-2.453 2.69v.618a24.19 24.19 0 0 1 2.329-.092c1.2 0 2.39.03 3.57.092v-.618c-.91-.02-1.588-.175-2.033-.464-.445-.288-.668-.752-.668-1.39 0-.578.207-1.423.621-2.536l1.273-3.277h7.513l1.894 5.07c.248.618.372 1.103.372 1.453 0 .412-.17.696-.512.85-.341.155-.905.253-1.692.294v.618c.87-.061 2.194-.092 3.974-.092 1.387 0 2.494.03 3.322.092v-.618c-.931-.041-1.645-.7-2.142-1.979zm-19.072.155c-.973.061-2.287.092-3.943.092-1.78 0-3.104-.03-3.973-.092v.618c.745.041 1.288.124 1.63.247.341.124.574.36.698.711.124.35.186.918.186 1.7v15.335c0 .783-.062 1.35-.186 1.7-.124.351-.357.588-.698.712-.342.123-.885.206-1.63.247v.618c2.028-.061 5.029-.092 9.002-.092 3.332 0 5.702.03 7.11.092a40.538 40.538 0 0 1-.218-3.957c0-1.051.03-1.896.093-2.535h-.714c-.145 1.525-.373 2.69-.683 3.494-.31.803-.802 1.386-1.475 1.746-.672.361-1.65.541-2.933.541h-2.266c-.745 0-1.288-.056-1.63-.17a1.068 1.068 0 0 1-.698-.695c-.125-.35-.187-.918-.187-1.7V82.111c0-.784.062-1.35.187-1.7.124-.351.357-.588.698-.712.342-.123.885-.206 1.63-.247z"/><path id="iiilb" d="M335.377 75.48c0 37.406-30.43 67.729-67.97 67.729-37.537 0-67.967-30.323-67.967-67.73 0-37.405 30.43-67.729 67.967-67.729 37.54 0 67.97 30.324 67.97 67.73"/><path id="iiilc" d="M245.877 24.327v-.907h18.356v.907h-.455v69.264h-17.446V24.327zm31.716 30.1h2.352V93.59h-14.487V54.427h2.352v-3.895h.437l4.26-6.786v-9.21h.391v9.21l4.258 6.786h.437zm-42.416-8.699h5.312v47.863h-19.2V45.728h4.249v-3.414h5.844v1.071h2.125v-1.071h1.67zm-20.91 6.724h.532v41.14H202.96l.53-41.14v-.597h10.778zM296.29 36.2h.91V93.59h-16.24V36.2h.91v-1.36h1.138v-1.438h1.18l4.89-2.998 4.894 2.998h1.179v1.438h1.139zm22.14 16.94h4.934v40.451h-15.71v-40.45h3.643v-2.467h3.793v2.466h1.444v-2.608h1.896zm16.394 23.514l-1.902 16.927h-6.827V44.785h1.914l5.48 15.164z"/><path id="iiild" d="M226.037 52.075v-.93h-2.123v-.543h-2.91v.543h-2.123v.93h-.894v1.007h-.662v40.506h10.268V53.082h-.661v-1.007zm-24.145 41.513h6.123V61.065h-5.679v2.016h-1.762l-1.034 16.174zm43.177-38.026h-1.556v-1.55h-1.711v-.968h-5.056v.968h-1.711v1.55h-1.556v2.482h-2.45v35.554h16.49V58.044h-2.45zm80.646 2.941v-1.02h-1.7v-2.019h-4.442v3.04h-4.182v35.094h12.348V58.503zm-49.484 4.54h-2.569v1.046h-3.11v-3.722h-6.068v3.722h-9.178v29.5h27.07v-29.5h-6.145zm32.689-26.78h-.242v-.553h-1.309v.553h-.238v4.65h-.54v-4.65h-.241v-.553h-1.31v.553h-.238v4.65h-1.89v-2.835h-.24v-.552h-1.31v.551h-.238v2.836h-.54v-2.835h-.241v-.552h-1.31v.551h-.24v2.836h-1.96v-4.65h-.238v-.553h-1.311v.553h-.24v4.65h-.539v-4.65h-.239v-.553h-1.309v.553h-.24v4.65h-.385v52.32h17.044v-52.32h-.457z"/><path id="iiile" d="M316.534 26.336C303.374 13.223 285.877 6 267.264 6c-18.609 0-36.106 7.223-49.266 20.336-13.16 13.113-20.408 30.55-20.408 49.096 0 18.546 7.247 35.98 20.408 49.095 13.16 13.114 30.657 20.336 49.267 20.336 18.612 0 36.109-7.222 49.269-20.336 13.16-13.114 20.407-30.55 20.407-49.095 0-18.547-7.247-35.983-20.407-49.096zM267.27 9.404c36.539 0 66.267 29.62 66.267 66.028 0 1.848-.08 3.678-.231 5.488h-3.185v.95h-2.024v-.95h-9.65v.95h-.833v9.02h-4.941v-3.858h-1.669v-4.687H294.09v1.194h-3.989V73.087H268.54v12.224h-4.228V72.553h-10.779v-1.188H252.2v1.188h-1.406v-1.188h-1.55v1.188h-1.248V70.12h-7.029v2.433h-2.501V69.17h-2.114v3.382h-.625v12.462h-3.038v-16.29H215.12v-3.674h-.952v-2.468h-6.79v2.468h-1.846v3.675h-3.216V88.51a65.712 65.712 0 0 1-1.31-13.078c0-36.408 29.727-66.028 66.265-66.028z"/><path id="iiilf" d="M182.574 101.802c-2.263 0-3.53-.604-4.561-1.257l-.016.109-.126.933h-2.751l.082-1.155c.085-1.194.112-2.892.112-6.99v-1.078h2.737l.068 1.005c.387 5.687 3.298 5.687 4.255 5.687.64 0 2.726-.205 2.726-2.85 0-1.716-1.3-2.805-4.032-4.459-2.55-1.543-5.726-3.465-5.726-7.53 0-4.274 3.295-6.187 6.561-6.187 2.252 0 3.341.72 4.133 1.257l.016-.109.125-.933h2.766l-.097 1.168c-.088 1.064-.139 2.375-.139 5.926v1.079h-2.729l-.075-.996c-.108-1.405-.686-4.675-3.728-4.675-1.518 0-2.498.921-2.498 2.348 0 1.692 1.209 2.514 3.528 3.938.286.176.58.356.877.544 2.835 1.786 5.767 3.632 5.767 7.549 0 3.993-2.924 6.676-7.275 6.676zm-5.028-18.419c-.044.26-.066.539-.066.836 0 2.645 1.856 3.967 4.688 5.68 2.774 1.679 5.07 3.312 5.07 6.305 0 .47-.045.905-.13 1.305.379-.63.603-1.416.603-2.384 0-2.452-1.525-3.68-4.762-5.718-.29-.184-.577-.36-.856-.53-2.266-1.393-4.41-2.71-4.547-5.494z"/><path id="iiilg" d="M193.907 101.456v-2.778l1.032-.036c1.92-.068 1.92-.068 1.92-1.758V81.195h-.513c-2.682 0-3.035.467-3.43 4.54l-.095.973h-2.814l.11-1.18c.052-.572.08-1.374.08-2.317 0-.577-.043-2.085-.208-3.656l-.129-1.235 1.23.043c2.407.086 5.76.086 8.208.086 2.43 0 5.76 0 8.166-.086l1.218-.043-.117 1.224a44.58 44.58 0 0 0-.194 3.667c0 .944.028 1.745.08 2.318l.11 1.179h-2.81l-.097-.97c-.416-4.119-.736-4.543-3.431-4.543h-.515v15.689c0 1.69 0 1.69 1.922 1.758l1.031.036v2.77l-1.127-.063c-.932-.051-2.555-.084-4.236-.084-1.842 0-3.394.03-4.256.084l-1.135.07zm5.397-2.312l.622.002c-.235-.553-.348-1.287-.348-2.262V80.605H199v16.279c0 .975-.113 1.71-.347 2.262l.65-.002z"/><path id="iiilh" d="M208.84 90.053c0-7.126 4.259-12.103 10.357-12.103 6.274 0 10.328 4.615 10.328 11.757 0 7.126-4.26 12.103-10.357 12.103-6.274 0-10.328-4.615-10.328-11.757zm10.242-9.413c-3.105 0-5.19 3.736-5.19 9.298 0 5.322 2.266 9.183 5.39 9.183 3.097 0 5.178-3.736 5.178-9.298 0-5.321-2.262-9.183-5.378-9.183zm-6.147 2.598c-1.248 1.715-1.956 4.052-1.956 6.81 0 3.203.867 5.717 2.451 7.367-1.069-1.939-1.68-4.51-1.68-7.482 0-2.598.422-4.872 1.185-6.695zm11.973-.93c1.077 1.943 1.694 4.528 1.694 7.515 0 2.617-.428 4.906-1.2 6.736 1.266-1.72 1.983-4.072 1.983-6.852 0-3.222-.876-5.748-2.477-7.4z"/><path id="iiili" d="M248.066 101.536h-2.32l-10.62-16.554v11.906c0 1.664 0 1.696 1.625 1.759l1.029.038v2.798l-1.156-.095c-.69-.057-1.985-.082-2.895-.082-1.033 0-2.06.032-2.616.082l-1.163.103v-2.8l1.022-.044c1.295-.057 1.346-.059 1.346-1.759v-14.32c0-1.02-.106-1.243-.138-1.287-.056-.042-.296-.128-1.207-.168l-1.023-.045v-2.8l1.163.104c.424.038 1.116.065 1.875.076v-.768l.497.774c.908.003 1.772-.023 2.432-.082l.641-.058 8.7 13.523v-8.966c0-1.665 0-1.697-1.625-1.757l-1.03-.04v-2.798l1.157.096c.694.056 1.987.082 2.895.082 1.03 0 2.057-.032 2.616-.082l1.164-.104v2.8l-1.024.045c-1.295.055-1.345.058-1.345 1.758v18.665zm-13.21-20.945l11.072 17.253v-1.012l-10.47-16.267a28.1 28.1 0 0 1-.601.026z"/><path id="iiilj" d="M267.986 101.445l-1.227-.054c-1.96-.085-4.669-.085-6.646-.085-1.814 0-5.59 0-8.443.086l-1.1.033v-2.733l1.023-.045c.911-.04 1.151-.126 1.214-.175.026-.038.131-.26.131-1.28V82.569c0-1.021-.105-1.243-.138-1.287-.056-.043-.296-.13-1.207-.169l-1.023-.044v-2.734l1.1.033c2.852.086 6.629.086 8.443.086 1.802 0 4.269 0 6.056-.085l1.243-.059-.13 1.248a37.866 37.866 0 0 0-.193 3.37c0 .694.027 1.31.076 1.69l.156 1.217h-2.842l-.106-.96c-.382-3.448-.715-3.674-2.862-3.674h-2.425c-.909 0-1.133.08-1.187.116-.011.026-.113.254-.113 1.252v5.873h.872c1.1 0 1.347-.562 1.572-2.366.026-.219.053-.426.083-.615l.147-.905h2.723l-.078 1.152a37.494 37.494 0 0 0-.097 2.704c0 .283.004.535.007.773.004.22.007.429.007.638 0 .921.028 1.89.17 4.119l.072 1.147h-2.756l-.164-1.368c-.227-2.02-.422-2.532-1.686-2.532h-.872v6.003c0 .997.102 1.225.133 1.27.034.016.258.098 1.167.098h2.14c2.82 0 3.343-.597 3.731-4.261l.103-.964h2.822l-.129 1.196c-.05.469-.08 1.202-.08 2.013 0 .651.052 2.166.195 3.667l.118 1.234zm-13.17-20.86c.183.508.26 1.159.26 1.983v14.615c0 .824-.077 1.474-.26 1.98l1.084-.01c-.177-.503-.251-1.15-.251-1.97V82.568c0-.82.074-1.468.251-1.97l-1.085-.012z"/><path id="iiilk" d="M280.185 97.772l-.643-2.939c-.632-2.842-.969-3.342-2.253-3.342h-1.712v5.7c0 1.02.105 1.243.137 1.287.056.043.296.13 1.208.17l1.024.044v2.77l-1.136-.072c-.812-.051-2.208-.084-3.642-.084-1.578 0-2.913.03-3.665.084l-1.143.08v-2.778l1.023-.045c.912-.04 1.152-.127 1.214-.175.026-.038.133-.26.133-1.28V82.569c0-1.021-.107-1.243-.139-1.287-.056-.042-.296-.129-1.208-.169l-1.023-.044V78.29l1.143.08c1.305.092 4.732.082 6.637.045.549-.01.992-.018 1.264-.018 5.99 0 8.117 3.34 8.117 6.202 0 1.947-.944 4.284-3.405 5.675 1.099.756 1.748 1.925 2.15 3.697l.726 2.993c.233 1.117.396 1.477.48 1.594.15-.008.248-.086.739-.712l.643-.818 2.104 1.573-.587.859c-.995 1.45-2.01 2.35-4.005 2.35-2.214 0-3.58-1.32-4.181-4.038zm.854-5.622c.255.708.425 1.477.589 2.215l.643 2.94c.318 1.444.775 2.006 1.289 2.22-.354-.648-.52-1.446-.652-2.084l-.722-2.973c-.26-1.146-.576-1.854-1.147-2.318zm-7.871 7l.524.001c-.179-.504-.253-1.147-.253-1.96v-6.688l-.571-.092v6.78c0 .813-.074 1.456-.254 1.96l.554-.001zm-.554-18.54c.18.504.254 1.146.254 1.957v7.526l.571-.089v-7.437c0-.757.063-1.418.253-1.96-.354.004-.692.005-1.078.003zm2.963 8.135h.899c3.317 0 3.982-1.46 3.982-3.815 0-2.746-1.06-3.815-3.78-3.815-1.1 0-1.1 0-1.1 1.454zm6.398-6.992c.41.865.617 1.926.617 3.177 0 .972-.123 1.826-.367 2.563a4.22 4.22 0 0 0 1.148-2.894c0-1.192-.492-2.158-1.398-2.846z"/><path id="iiill" d="M185.472 80.203c.471.302.728.417.999.417.37 0 .527-.446.642-1.295h.67c-.085 1.036-.142 2.303-.142 6.016h-.67c-.215-2.807-1.556-5.67-4.794-5.67-2.083 0-3.567 1.396-3.567 3.425 0 2.677 2.283 3.742 4.908 5.397 3.038 1.915 5.264 3.469 5.264 6.635 0 3.741-2.81 5.598-6.206 5.598-2.068 0-3.154-.561-3.994-1.094-.471-.302-.757-.417-1-.417-.37 0-.527.447-.641 1.295h-.671c.086-1.209.115-2.907.115-7.066h.67c.243 3.57 1.584 6.692 5.322 6.692 1.896 0 3.794-1.152 3.794-3.93 0-2.388-1.84-3.74-4.55-5.382-2.783-1.683-5.208-3.281-5.208-6.605 0-3.483 2.61-5.109 5.493-5.109 1.926 0 2.782.56 3.566 1.093"/><path id="iiilm" d="M207.3 83.21c0 .951.028 1.8.085 2.419h-.67c-.414-4.102-.842-5.513-4.495-5.513h-1.583v16.767c0 2.39.5 2.75 2.953 2.836v.59c-1.027-.058-2.71-.087-4.294-.087-1.755 0-3.395.03-4.323.086v-.59c2.454-.086 2.953-.445 2.953-2.835V80.116h-1.583c-3.652 0-4.095 1.41-4.494 5.513h-.67c.057-.62.085-1.468.085-2.418 0-.735-.057-2.274-.214-3.771 2.425.087 5.85.087 8.246.087 2.397 0 5.778 0 8.203-.087a45.418 45.418 0 0 0-.2 3.77"/><path id="iiiln" d="M228.457 89.7c0 6.59-3.852 11.023-9.288 11.023-5.55 0-9.259-3.929-9.259-10.678 0-6.592 3.852-11.025 9.288-11.025 5.55 0 9.259 3.929 9.259 10.68zm-15.636.23c0 6.274 2.867 10.261 6.462 10.261 3.795 0 6.25-4.274 6.25-10.376 0-6.275-2.854-10.261-6.45-10.261-3.809 0-6.262 4.274-6.262 10.376z"/><path id="iiilo" d="M249.357 80.03c-1.983.086-2.369.676-2.369 2.835v17.588h-.67l-12.27-19.128v15.558c0 2.16.386 2.75 2.654 2.836v.59c-.7-.058-1.983-.087-2.982-.087-.984 0-2.068.03-2.71.086v-.59c1.983-.086 2.368-.676 2.368-2.835v-14.32c0-2.145-.385-2.447-2.368-2.532v-.591c.642.057 1.726.087 2.71.087.856 0 1.641-.03 2.283-.087l10.315 16.033V82.865c0-2.159-.371-2.749-2.654-2.834v-.591c.7.057 1.983.087 2.982.087.985 0 2.069-.03 2.71-.087v.59"/><path id="iiilp" d="M266.805 100.308c-1.983-.086-4.736-.086-6.69-.086-1.755 0-5.608 0-8.475.086v-.59c1.983-.086 2.368-.388 2.368-2.532V82.563c0-2.145-.385-2.447-2.368-2.532v-.591c2.867.087 6.72.087 8.474.087 1.784 0 4.294 0 6.107-.087a38.744 38.744 0 0 0-.2 3.483c0 .705.028 1.381.086 1.828h-.672c-.385-3.483-.828-4.635-3.923-4.635h-2.425c-1.983 0-2.368.302-2.368 2.447v6.951h1.94c2.54 0 2.482-2.475 2.71-3.885h.67a38.8 38.8 0 0 0-.098 2.777c0 .548.013.979.013 1.411 0 .964.03 1.942.172 4.188h-.67c-.229-1.885-.257-3.9-2.797-3.9h-1.94v7.081c0 2.144.385 2.446 2.368 2.446h2.14c3.652 0 4.38-1.324 4.794-5.224h.67c-.057.533-.085 1.31-.085 2.13 0 .734.057 2.274.2 3.77"/><path id="iiilq" d="M287.492 98.84c-.827 1.209-1.556 1.885-3.125 1.885-1.47 0-2.581-.676-3.14-3.194l-.64-2.936c-.558-2.505-.984-4.188-3.297-4.188h-2.78v6.779c0 2.144.385 2.446 2.368 2.533v.59c-.899-.058-2.369-.087-3.709-.087-1.513 0-2.926.03-3.739.086v-.59c1.984-.086 2.37-.388 2.37-2.532V82.563c0-2.145-.386-2.447-2.37-2.532v-.591c.813.057 2.282.087 3.566.087 1.84 0 3.71-.058 4.409-.058 4.708 0 7.048 2.245 7.048 5.124 0 2.043-1.271 4.979-5.68 5.67l.36.057c2.595.433 3.536 1.44 4.092 3.886l.728 3.007c.356 1.714.686 2.42 1.5 2.42.712 0 1.055-.432 1.597-1.123l.442.33zm-12.98-16.277v7.254h1.966c4.135 0 5.047-2.187 5.047-4.893 0-3.094-1.312-4.893-4.846-4.893-1.782 0-2.167.503-2.167 2.532z"/><path id="iiilr" d="M357.484 78.927c.93 0 1.707-.03 2.328-.092v.618c-1.16.268-1.976 1.165-2.452 2.691l-5.867 18.744h-.497l-5.4-15.93-4.936 15.93h-.497l-6.58-19.455c-.435-1.279-1.148-1.939-2.142-1.98v-.618c.849.061 1.956.092 3.321.092 1.49 0 2.608-.03 3.353-.092v.618c-.559.041-.952.145-1.18.31-.227.164-.341.422-.341.773 0 .33.114.835.341 1.515l4.532 13.795 3.787-11.97-.838-2.443c-.414-1.279-1.024-1.939-1.831-1.98v-.618c.745.061 1.748.092 3.01.092 1.78 0 3.104-.03 3.974-.092v.618c-.787.041-1.335.13-1.646.263-.31.134-.465.418-.465.85 0 .372.103.867.31 1.485l4.47 13.764 3.818-11.97c.331-1.01.497-1.845.497-2.505 0-.68-.207-1.16-.621-1.438-.414-.279-1.087-.428-2.018-.449v-.618c1.18.061 2.37.092 3.57.092zm-33.26 12.892l-3.473-9.244-3.536 9.244zm5.469 6.307c.497 1.278 1.21 1.938 2.142 1.98v.617c-.828-.061-1.935-.092-3.322-.092-1.78 0-3.105.03-3.974.092v-.618c.787-.041 1.35-.139 1.692-.294.342-.154.512-.438.512-.85 0-.35-.124-.835-.372-1.453l-1.894-5.07h-7.513l-1.273 3.277c-.414 1.113-.62 1.958-.62 2.535 0 .639.222 1.103.667 1.391.445.289 1.122.443 2.033.464v.618a68.209 68.209 0 0 0-3.57-.092c-.932 0-1.708.03-2.329.092v-.618c1.035-.247 1.853-1.144 2.453-2.69l7.296-18.735h.497zm-26.647-18.673c-.745.041-1.288.124-1.63.247-.341.124-.574.36-.698.711-.125.35-.187.918-.187 1.7v15.335c0 .783.062 1.35.187 1.7.124.351.357.583.698.696.342.114.885.17 1.63.17h2.266c1.283 0 2.26-.18 2.933-.54.673-.361 1.165-.944 1.475-1.747.31-.804.538-1.969.683-3.494h.714c-.062.639-.093 1.484-.093 2.535 0 1.175.072 2.494.217 3.957-1.407-.061-3.777-.092-7.109-.092-3.973 0-6.974.03-9.002.092v-.618c.745-.041 1.288-.124 1.63-.247.341-.124.574-.36.698-.711.124-.35.186-.918.186-1.7V82.111c0-.784-.062-1.35-.186-1.7a1.114 1.114 0 0 0-.698-.712c-.342-.123-.885-.206-1.63-.247v-.618c.87.061 2.194.092 3.973.092 1.656 0 2.97-.03 3.943-.092z"/><path id="iiilt" d="M305.685 106.166l.313-.633c-.499-.243-1.082-.364-1.749-.364-.626 0-1.17.133-1.633.399a2.634 2.634 0 0 0-1.06 1.136c-.246.491-.368 1.064-.368 1.717 0 1.044.254 1.85.763 2.416.509.567 1.231.85 2.168.85.647 0 1.19-.082 1.63-.247v-.646c-.567.159-1.073.238-1.517.238-.722 0-1.278-.226-1.668-.678-.39-.453-.585-1.094-.585-1.924 0-.807.202-1.442.607-1.906.404-.464.956-.696 1.655-.696.481 0 .962.113 1.444.338zm-8.026 5.434v-.667h-2.813v-5.673h-.742v6.34zm-7.592 0v-.667h-2.813v-5.673h-.742v6.34zm-13.483-2.745c-.251-.272-.71-.526-1.377-.763-.397-.142-.692-.271-.885-.388a1.145 1.145 0 0 1-.41-.386 1.068 1.068 0 0 1-.123-.54c0-.298.11-.53.331-.699.22-.167.526-.251.918-.251.495 0 1.006.11 1.53.33l.231-.642a4.317 4.317 0 0 0-1.744-.347c-.606 0-1.093.144-1.461.433-.369.29-.553.678-.553 1.167 0 .466.127.843.38 1.132.255.29.677.54 1.269.75.423.15.738.285.946.404.207.118.355.248.443.388.089.14.133.32.133.54 0 .332-.125.592-.374.778-.25.187-.62.28-1.114.28-.301 0-.605-.032-.913-.095a4.59 4.59 0 0 1-.852-.26v.71c.406.194.986.291 1.74.291.695 0 1.246-.156 1.652-.468.406-.313.609-.748.609-1.306 0-.433-.125-.786-.376-1.058zm-7.59 2.086h-2.805v-2.333h2.635v-.65h-2.635v-2.043h2.805v-.655h-3.545v6.34h3.545zm-7.966-4.775l.313-.633c-.499-.243-1.082-.364-1.749-.364-.626 0-1.17.133-1.633.399a2.634 2.634 0 0 0-1.061 1.136c-.245.491-.367 1.064-.367 1.717 0 1.044.254 1.85.763 2.416.509.567 1.231.85 2.168.85.646 0 1.19-.082 1.63-.247v-.646c-.568.159-1.073.238-1.517.238-.722 0-1.278-.226-1.668-.678-.39-.453-.585-1.094-.585-1.924 0-.807.202-1.442.607-1.906.404-.464.956-.696 1.655-.696.48 0 .962.113 1.444.338zm-8.88 5.434v-6.34h-.74v6.34zm-7.564-2.71h2.643v-.655h-2.643v-2.32h2.813v-.655h-3.554v6.34h.741zm-7.568 0h2.635v-.655h-2.635v-2.32h2.805v-.655h-3.545v6.34h.74zm-9.642-2.405c.368-.444.905-.666 1.611-.666.703 0 1.234.22 1.593.662.36.44.539 1.087.539 1.94 0 .862-.18 1.514-.54 1.956-.361.443-.894.664-1.6.664-.701 0-1.235-.222-1.603-.666-.367-.444-.551-1.095-.551-1.954 0-.847.184-1.492.551-1.936zm3.746-.458c-.513-.578-1.227-.867-2.14-.867-.94 0-1.664.284-2.175.852-.51.568-.765 1.369-.765 2.4 0 1.042.254 1.848.763 2.419.51.57 1.232.856 2.168.856.917 0 1.632-.29 2.147-.872.514-.58.772-1.379.772-2.394 0-1.017-.257-1.815-.77-2.394z"/><clipPath id="iiils"><use fill="#fff" xlink:href="#iiila"/></clipPath></defs><g><g transform="translate(-175 -6)"><g><g><use fill="#3b6580" xlink:href="#iiilb"/></g><g><use fill="#1a3f5b" xlink:href="#iiilc"/></g><g><use fill="#173247" xlink:href="#iiild"/></g><g><use fill="#162935" xlink:href="#iiile"/></g><g><g><g><g><use fill="#162935" xlink:href="#iiilf"/></g><g><use fill="#162935" xlink:href="#iiilg"/></g><g><use fill="#162935" xlink:href="#iiilh"/></g><g><use fill="#162935" xlink:href="#iiili"/></g><g><use fill="#162935" xlink:href="#iiilj"/></g><g><use fill="#162935" xlink:href="#iiilk"/></g><g><use fill="#fffffe" xlink:href="#iiill"/></g><g><use fill="#fffffe" xlink:href="#iiilm"/></g><g><use fill="#fffffe" xlink:href="#iiiln"/></g><g><use fill="#fffffe" xlink:href="#iiilo"/></g><g><use fill="#fffffe" xlink:href="#iiilp"/></g><g><use fill="#fffffe" xlink:href="#iiilq"/></g></g><g><g><use fill="#fffffe" xlink:href="#iiilr"/><use fill="#fff" fill-opacity="0" stroke="#162935" stroke-miterlimit="50" stroke-width="2.29" clip-path="url(&quot;#iiils&quot;)" xlink:href="#iiilr"/></g><g><use fill="#fffffe" xlink:href="#iiilr"/></g></g></g></g></g><g><use fill="#a6a496" xlink:href="#iiilt"/></g></g></g></svg>