<svg xmlns="http://www.w3.org/2000/svg" xmlns:xlink="http://www.w3.org/1999/xlink" width="44" height="38" viewBox="0 0 44 38"><defs><path id="xji1a" d="M1204 786.99c-.6 0-1 .398-1 .996v12.947c0 .597-.4.996-1 .996h-36c-.6 0-1-.399-1-.996v-12.947c0-.598-.4-.996-1-.996s-1 .398-1 .996v12.947c0 1.693 1.3 2.987 3 2.987h36c1.7 0 3-1.294 3-2.987v-12.947c0-.598-.4-.996-1-.996z"/><path id="xji1b" d="M1204 782.411c0 .498-.3.897-.8.996l-15.2 3.386v-.796c0-.598-.4-.996-1-.996h-6c-.6 0-1 .398-1 .996v.796l-15.2-3.386c-.5-.1-.8-.498-.8-.995v-6.374c0-.598.4-.996 1-.996h38c.6 0 1 .398 1 .996zm-18 8.575h-4v-3.993h4zm17-17.936h-38c-1.7 0-3 1.295-3 2.988v6.374c0 1.394 1 2.589 2.3 2.888l15.7 3.485v3.187c0 .598.4.996 1 .996h6c.6 0 1-.398 1-.996v-3.187l15.7-3.485c1.3-.3 2.3-1.494 2.3-2.889v-6.373c0-1.693-1.3-2.988-3-2.988z"/><path id="xji1c" d="M1189 766.08h-10c-1.7 0-3 1.295-3 2.988v.996c0 .597.4.995 1 .995s1-.398 1-.995v-.996c0-.598.4-.996 1-.996h10c.6 0 1 .398 1 .996v.996c0 .597.4.995 1 .995s1-.398 1-.995v-.996c0-1.693-1.3-2.988-3-2.988z"/></defs><g><g transform="translate(-1162 -766)"><g><use fill="#fff" xlink:href="#xji1a"/></g><g><use fill="#fff" xlink:href="#xji1b"/></g><g><use fill="#fff" xlink:href="#xji1c"/></g></g></g></svg>