<svg xmlns="http://www.w3.org/2000/svg" xmlns:xlink="http://www.w3.org/1999/xlink" width="39" height="37" viewBox="0 0 39 37"><defs><path id="deeta" d="M829.261 797.342v-11.547h1.432v11.547zm4.128 2.697H799.61v-1.433h33.778zm1.357 2.707h-36.483v-1.443h36.483zm-32.44-16.951h1.433v11.547h-1.432zm2.107-2.023v.717a.042.042 0 0 1-.043.042h-2.695a.042.042 0 0 1-.042-.042v-.717zm-4.802-2.697h33.778v1.433H799.61zm-1.347-2.288l18.241-10.427 18.241 10.427v1.024h-36.483zm26.365 4.985v.717a.042.042 0 0 1-.043.042h-2.695a.042.042 0 0 1-.042-.042v-.717zm-6.74 0v.717a.042.042 0 0 1-.041.042h-2.696a.042.042 0 0 1-.042-.042v-.717zm-6.738 0v.717a.042.042 0 0 1-.042.042h-2.695a.042.042 0 0 1-.043-.042v-.717zm-6.149 13.57V785.63c.402-.223.674-.651.674-1.142v-.717h1.432v.717c0 .49.272.919.674 1.142v11.71zm4.043 0v-11.547h1.432v11.547zm2.696 0V785.63c.401-.223.674-.651.674-1.142v-.717h1.432v.717c0 .49.272.919.674 1.142v11.71zm4.043 0v-11.547h1.442v11.547zm2.695 0V785.63c.402-.223.674-.651.674-1.142v-.717h1.432v.717c0 .49.273.919.674 1.142v11.71zm4.044 0v-11.547h1.432v11.547zm2.695 0V785.63c.402-.223.674-.651.674-1.142v-.717h1.432v.717c0 .49.272.919.674 1.142v11.71zm6.15-12.853a.042.042 0 0 1-.043.042h-2.695a.042.042 0 0 1-.043-.042v-.717h2.78zm1.263 0v-.717h1.39a.632.632 0 0 0 .631-.632v-2.065h.716a.632.632 0 0 0 .632-.632v-2.023a.632.632 0 0 0-.318-.549l-18.869-10.788a.632.632 0 0 0-.626 0l-18.869 10.788a.632.632 0 0 0-.318.55v2.022c0 .35.283.632.632.632h.716v2.065c0 .35.283.632.631.632h1.39v.717c0 .49.273.919.674 1.142v11.71h-2.064a.632.632 0 0 0-.631.633v2.065h-.716a.632.632 0 0 0-.632.632v2.697c0 .349.283.632.632.632h37.736a.632.632 0 0 0 .632-.632v-2.697a.632.632 0 0 0-.632-.632h-.716v-2.065a.632.632 0 0 0-.631-.632h-2.064V785.63c.401-.223.674-.651.674-1.142z"/></defs><g><g transform="translate(-797 -767)"><use fill="#fff" xlink:href="#deeta"/></g></g></svg>