<svg xmlns="http://www.w3.org/2000/svg" xmlns:xlink="http://www.w3.org/1999/xlink" width="50" height="50" viewBox="0 0 50 50"><defs><path id="g3lka" d="M449.672 773.792a1.004 1.004 0 0 0-.705-.292c-.262 0-.52.107-.705.292a1.003 1.003 0 0 0-.292.705c0 .262.107.52.292.705.186.185.443.292.705.292.262 0 .52-.107.705-.292.185-.186.292-.443.292-.705 0-.262-.107-.52-.292-.705z"/><path id="g3lkb" d="M426.685 795.465h-5.894v-5.894h5.894zm.98-7.855h-7.853a.982.982 0 0 0-.982.982v7.852c0 .542.44.982.982.982h7.852c.542 0 .982-.44.982-.982v-7.852a.982.982 0 0 0-.982-.982z"/><path id="g3lkc" d="M461.047 808.047h-24.311l3.728-3.728.932.933a.974.974 0 0 0 1.382 0 .977.977 0 0 0 0-1.382l-.933-.932 2.487-2.487.933.932a.974.974 0 0 0 1.381 0 .977.977 0 0 0 0-1.381l-.932-.933 2.487-2.487.932.933a.974.974 0 0 0 1.382 0 .977.977 0 0 0 0-1.382l-.933-.933 2.487-2.486.932.932a.974.974 0 0 0 1.382 0 .977.977 0 0 0 0-1.381l-.933-.933 2.487-2.487.933.933a.974.974 0 0 0 1.381 0 .977.977 0 0 0 0-1.382l-.932-.933 3.728-3.727zm1.351-27.573a.977.977 0 0 0-1.065.212l-9.954 9.955h-.001l-11.605 11.605v.001l-6.087 6.087a.977.977 0 0 0 .69 1.667h27.648c.54 0 .977-.437.977-.977v-27.647a.977.977 0 0 0-.603-.903z"/><path id="g3lkd" d="M456.146 803.146h-7.61l7.61-7.61zm1.346-10.862a.974.974 0 0 0-1.061.211l-10.936 10.936a.974.974 0 0 0 .689 1.662h10.936a.974.974 0 0 0 .973-.973v-10.936a.974.974 0 0 0-.6-.9z"/><path id="g3lke" d="M454.75 780.124l-2.047-2.039 3.23-1.177zm-20.225 21.015l-.616.615c-.38.38-.886.589-1.424.589-.538 0-1.044-.21-1.424-.59-.38-.38-.59-.885-.59-1.422 0-.537.21-1.042.59-1.422l.616-.615zm23.74-26.563a.978.978 0 0 0-1.027-.226l-6.674 2.442a.979.979 0 0 0-.355.226l-1.877 1.875-12.255-12.243a.978.978 0 0 0-1.383 0l-14.751 14.737h-3.605l19.048-19.03 10.452 10.443a.976.976 0 1 0 1.383-1.381l-11.144-11.133a.978.978 0 0 0-1.383 0l-21.408 21.387a.976.976 0 0 0 .692 1.667h.977v25.683c0 .54.438.977.978.977h15.541a.977.977 0 1 0 0-1.953H416.91V783.34h3.438c.26 0 .508-.103.691-.286l14.347-14.332 11.563 11.552-14.496 14.482v-8.78h6.843a.977.977 0 1 0 0-1.953h-7.82a.977.977 0 0 0-.978.977v11.328c0 .114.02.223.056.325l-.875.874a3.967 3.967 0 0 0 0 5.608 3.958 3.958 0 0 0 2.806 1.16 3.959 3.959 0 0 0 2.806-1.16l8.244-8.236a.976.976 0 1 0-1.382-1.38l-6.246 6.239-2.848-2.845 17.86-17.843 2.848 2.845-6.824 6.818a.976.976 0 1 0 1.382 1.381l7.496-7.489c.1-.1.178-.221.227-.354l2.444-6.668a.976.976 0 0 0-.226-1.027z"/><path id="g3lkf" d="M445.832 791.122a1.004 1.004 0 0 0-.705-.292c-.262 0-.52.107-.705.292a1.006 1.006 0 0 0-.292.705c0 .263.107.52.292.706a1.002 1.002 0 0 0 1.41 0c.185-.187.292-.444.292-.706 0-.262-.107-.518-.292-.705z"/><path id="g3lkg" d="M435.386 780.132a1.74 1.74 0 0 1-1.739-1.736 1.74 1.74 0 0 1 3.478 0 1.74 1.74 0 0 1-1.739 1.736zm.005-5.412a3.685 3.685 0 0 0-3.681 3.681 3.685 3.685 0 0 0 3.681 3.68 3.685 3.685 0 0 0 3.681-3.68 3.685 3.685 0 0 0-3.681-3.681z"/></defs><g><g transform="translate(-413 -760)"><g><use fill="#fff" xlink:href="#g3lka"/></g><g><use fill="#fff" xlink:href="#g3lkb"/></g><g><use fill="#fff" xlink:href="#g3lkc"/></g><g><use fill="#fff" xlink:href="#g3lkd"/></g><g><use fill="#fff" xlink:href="#g3lke"/></g><g><use fill="#fff" xlink:href="#g3lkf"/></g><g><use fill="#fff" xlink:href="#g3lkg"/></g></g></g></svg>