<svg xmlns="http://www.w3.org/2000/svg" xmlns:xlink="http://www.w3.org/1999/xlink" width="50" height="50" viewBox="0 0 50 50"><defs><path id="gjm9a" d="M116.102 808.047h-8.203v-17.578h8.203zm19.921 0h-4.296v-7.715a.977.977 0 0 0-1.954 0v7.715h-11.718v-18.555a.977.977 0 0 0-.977-.976h-10.156a.977.977 0 0 0-.977.976v18.555H94.227v-22.07h.375a.977.977 0 0 0 .691-.286L112 768.983l16.707 16.708a.977.977 0 0 0 .69.286h.376v7.324a.977.977 0 0 0 1.954 0v-7.324h4.296a.977.977 0 0 0 .69-1.668l-24.022-24.023a.977.977 0 0 0-1.382 0l-9.18 9.18a.977.977 0 0 0 1.382 1.38l8.489-8.488 21.666 21.665h-3.864l-17.111-17.111a.977.977 0 0 0-1.382 0l-17.111 17.111h-3.864l7.708-7.707a.977.977 0 0 0-1.381-1.382l-9.375 9.375a.977.977 0 0 0 .69 1.668h4.298v22.07h-4.297a.977.977 0 0 0 0 1.953H136.023a.977.977 0 0 0 0-1.953z"/><path id="gjm9b" d="M125.467 798.47h-3.527v-7.798h3.527zm.98-9.75h-5.487a.978.978 0 0 0-.98.975v9.752c0 .539.439.975.98.975h5.487c.541 0 .98-.436.98-.975v-9.752a.978.978 0 0 0-.98-.975z"/><path id="gjm9c" d="M102.057 798.47H98.53v-7.798h3.527zm.98-9.75H97.55a.978.978 0 0 0-.98.975v9.752c0 .539.439.975.98.975h5.487c.541 0 .98-.436.98-.975v-9.752a.978.978 0 0 0-.98-.975z"/><path id="gjm9d" d="M111.465 782.62a2.408 2.408 0 0 1-2.405-2.405 2.408 2.408 0 0 1 2.405-2.405 2.408 2.408 0 0 1 2.406 2.405 2.408 2.408 0 0 1-2.406 2.405zm0-6.66a4.26 4.26 0 0 0-4.255 4.255 4.26 4.26 0 0 0 4.255 4.256 4.26 4.26 0 0 0 4.256-4.256 4.26 4.26 0 0 0-4.256-4.255z"/><path id="gjm9e" d="M111.156 798.612a1.072 1.072 0 0 0-.752-.312c-.28 0-.554.114-.752.312a1.072 1.072 0 0 0-.312.752c0 .28.114.554.312.752.198.198.472.312.752.312s.554-.114.752-.312c.198-.198.312-.472.312-.752s-.114-.554-.312-.752z"/><path id="gjm9f" d="M100.516 772.012a1.071 1.071 0 0 0-.752-.312c-.28 0-.554.114-.752.312a1.072 1.072 0 0 0-.312.752c0 .28.114.554.312.752.198.198.472.312.752.312s.554-.114.752-.312c.198-.198.312-.472.312-.752s-.114-.554-.312-.752z"/><path id="gjm9g" d="M131.366 795.422a1.072 1.072 0 0 0-.752-.312c-.28 0-.554.114-.752.312a1.074 1.074 0 0 0-.312.752c0 .28.114.554.312.753a1.07 1.07 0 0 0 1.504 0c.198-.199.312-.472.312-.753 0-.28-.114-.554-.312-.752z"/></defs><g><g transform="translate(-87 -760)"><g><use fill="#fff" xlink:href="#gjm9a"/></g><g><use fill="#fff" xlink:href="#gjm9b"/></g><g><use fill="#fff" xlink:href="#gjm9c"/></g><g><use fill="#fff" xlink:href="#gjm9d"/></g><g><use fill="#fff" xlink:href="#gjm9e"/></g><g><use fill="#fff" xlink:href="#gjm9f"/></g><g><use fill="#fff" xlink:href="#gjm9g"/></g></g></g></svg>